<svg width="45" height="45" viewBox="0 0 45 45" fill="none" xmlns="http://www.w3.org/2000/svg">
<path d="M10.1038 18.3093C11.0015 15.6552 12.734 13.3459 15.0541 11.7108C17.3742 10.0758 20.1634 9.19861 23.0239 9.20435C26.2664 9.20435 29.1981 10.3293 31.5004 12.1706L38.2003 5.62499C34.1175 2.14687 28.8853 0 23.0239 0C13.9487 0 6.13603 5.05874 2.37933 12.4687L10.1038 18.3093Z" fill="#EA4335"/>
<path d="M30.7752 33.7743C28.6839 35.0924 26.0285 35.7955 23.0239 35.7955C20.1749 35.8013 17.3962 34.931 15.0812 33.3081C12.7662 31.6851 11.0323 29.3917 10.1249 26.7524L2.3736 32.5031C4.27544 36.2648 7.21867 39.43 10.869 41.6391C14.5193 43.8481 18.7304 45.0125 23.0239 44.9999C28.6513 44.9999 34.0273 43.0443 38.0545 39.3749L30.7771 33.7743H30.7752Z" fill="#34A853"/>
<path d="M38.0545 39.3749C42.266 35.5349 45 29.8199 45 22.4999C45 21.1687 44.7909 19.7381 44.4781 18.4087H23.0239V27.103H35.3723C34.7641 30.0262 33.1275 32.2893 30.7771 33.7743L38.0545 39.3749Z" fill="#4A90E2"/>
<path d="M10.1249 26.7525C9.6555 25.3817 9.41704 23.9455 9.41882 22.5C9.41882 21.0337 9.65865 19.6256 10.1038 18.3094L2.37934 12.4688C0.799102 15.5863 -0.0155025 19.021 0.000223434 22.5C0.000223434 26.1 0.854018 29.4937 2.37358 32.5031L10.1249 26.7525Z" fill="#FBBC05"/>
</svg>
