<svg width="34" height="34" viewBox="0 0 34 34" fill="none" xmlns="http://www.w3.org/2000/svg">
<path d="M15.7249 3.5374C16.1195 3.16438 16.6419 2.95654 17.1848 2.95654C17.7278 2.95654 18.2501 3.16438 18.6447 3.5374L28.9382 13.2678C29.5757 13.8691 29.9348 14.7085 29.9348 15.584V27.4203C29.9348 28.2657 29.599 29.0764 29.0012 29.6742C28.4034 30.2719 27.5927 30.6078 26.7473 30.6078H22.4973C22.0785 30.6078 21.6639 30.5253 21.277 30.3649C20.8902 30.2046 20.5387 29.9696 20.2427 29.6734C19.9466 29.3772 19.7119 29.0256 19.5518 28.6386C19.3918 28.2516 19.3095 27.8369 19.3098 27.4181V22.1056C19.3098 21.8239 19.1979 21.5536 18.9986 21.3543C18.7994 21.1551 18.5291 21.0431 18.2473 21.0431H16.1223C15.8405 21.0431 15.5703 21.1551 15.371 21.3543C15.1718 21.5536 15.0598 21.8239 15.0598 22.1056V27.4181C15.0598 28.2635 14.724 29.0743 14.1262 29.6721C13.5284 30.2698 12.7177 30.6056 11.8723 30.6056H7.62231C6.77694 30.6056 5.96618 30.2698 5.36841 29.6721C4.77064 29.0743 4.43481 28.2635 4.43481 27.4181V15.5819C4.43481 14.7064 4.79606 13.867 5.43356 13.2656L15.7249 3.53315V3.5374ZM17.1848 5.08015L6.89131 14.8126C6.78682 14.9117 6.70355 15.031 6.64656 15.1632C6.58957 15.2955 6.56006 15.4379 6.55981 15.5819V27.4181C6.55981 27.6999 6.67176 27.9702 6.87101 28.1695C7.07027 28.3687 7.34052 28.4806 7.62231 28.4806H11.8723C12.1541 28.4806 12.4244 28.3687 12.6236 28.1695C12.8229 27.9702 12.9348 27.6999 12.9348 27.4181V22.1056C12.9348 21.2603 13.2706 20.4495 13.8684 19.8517C14.4662 19.254 15.2769 18.9181 16.1223 18.9181H18.2473C19.0927 18.9181 19.9034 19.254 20.5012 19.8517C21.099 20.4495 21.4348 21.2603 21.4348 22.1056V27.4181C21.4348 27.6999 21.5468 27.9702 21.746 28.1695C21.9453 28.3687 22.2155 28.4806 22.4973 28.4806H26.7473C27.0291 28.4806 27.2994 28.3687 27.4986 28.1695C27.6979 27.9702 27.8098 27.6999 27.8098 27.4181V15.5819C27.8099 15.4375 27.7805 15.2947 27.7235 15.1621C27.6665 15.0295 27.5831 14.9098 27.4783 14.8105L17.1848 5.08015Z" fill="white"/>
</svg>
