<svg width="299" height="391" viewBox="0 0 299 391" fill="none" xmlns="http://www.w3.org/2000/svg">
<path fill-rule="evenodd" clip-rule="evenodd" d="M491.024 -41.5355C527.337 -4.81764 568.121 34.9454 571.381 86.4684C574.695 138.855 544.203 188.377 507.969 226.3C474.836 260.979 426.478 271.019 380.868 285.867C335.535 300.624 288.361 329.457 243.854 312.279C199.718 295.244 189.198 239.3 161.255 201.105C133.422 163.06 90.8457 135.172 80.6272 89.1631C69.089 37.212 71.932 -21.2752 102.147 -65.0297C132.555 -109.064 186.454 -132.121 239.296 -140.607C287.177 -148.295 332.628 -127.059 377.779 -109.289C419.732 -92.7781 459.311 -73.6011 491.024 -41.5355Z" fill="#FBFAFF"/>
<path fill-rule="evenodd" clip-rule="evenodd" d="M509.549 -55.1664C545.863 -18.4485 586.647 21.3146 589.907 72.8376C593.221 125.224 562.728 174.746 526.495 212.67C493.362 247.348 445.004 257.388 399.394 272.236C354.061 286.993 306.887 315.826 262.38 298.648C218.243 281.613 207.723 225.669 179.781 187.474C151.948 149.429 109.371 121.541 99.1529 75.5322C87.6146 23.5811 90.4577 -34.9061 120.673 -78.6606C151.081 -122.695 204.98 -145.752 257.822 -154.237C305.703 -161.926 351.154 -140.69 396.305 -122.92C438.258 -106.409 477.837 -87.232 509.549 -55.1664Z" fill="#F3F1FF"/>
</svg>
