<svg width="414" height="490" viewBox="0 0 414 490" fill="none" xmlns="http://www.w3.org/2000/svg">
<path fill-rule="evenodd" clip-rule="evenodd" d="M471.194 371.675C413.191 355.018 391.52 266.439 337.669 234.813C300.676 213.088 252.66 250.399 218.367 223.192C184.407 196.251 193.251 135.097 166.579 99.0804C115.788 30.4923 17.0563 4.77812 -5.58474 -79.2313C-26.643 -157.368 10.6433 -243.902 59.7984 -297.13C108.595 -349.97 188.033 -340.984 254.608 -360.981C321.461 -381.061 383.058 -432.091 453.172 -415.285C524.017 -398.303 587.793 -339.389 630.288 -270.928C669.904 -207.104 674.388 -127.471 678.509 -52.2549C681.9 9.6416 658.89 64.2985 651.972 124.904C644.453 190.782 672.452 270.675 635.966 320.479C599.672 370.022 529.588 388.445 471.194 371.675Z" fill="#F2F0FF" fill-opacity="0.33"/>
<path fill-rule="evenodd" clip-rule="evenodd" d="M487.411 348.502C429.409 331.845 407.738 243.267 353.886 211.64C316.894 189.915 268.878 227.226 234.585 200.02C200.625 173.078 209.469 111.924 182.797 75.9076C132.006 7.3194 33.2742 -18.3947 10.6332 -102.404C-10.4251 -180.541 26.8612 -267.075 76.0163 -320.303C124.813 -373.142 204.251 -364.157 270.825 -384.154C337.679 -404.234 399.276 -455.264 469.389 -438.458C540.235 -421.475 604.011 -362.562 646.506 -294.1C686.122 -230.277 690.606 -150.644 694.727 -75.4277C698.118 -13.5313 675.108 41.1257 668.19 101.731C660.671 167.609 688.67 247.502 652.184 297.306C615.89 346.849 545.806 365.272 487.411 348.502Z" fill="#E5E1FF" fill-opacity="0.37"/>
</svg>
