<svg width="243" height="234" viewBox="0 0 243 234" fill="none" xmlns="http://www.w3.org/2000/svg">
<path fill-rule="evenodd" clip-rule="evenodd" d="M34.4114 790.502C-23.5908 773.845 -45.2621 685.267 -99.1135 653.64C-136.106 631.915 -184.122 669.226 -218.415 642.02C-252.375 615.078 -243.531 553.924 -270.203 517.908C-320.994 449.319 -419.726 423.605 -442.367 339.596C-463.425 261.459 -426.139 174.925 -376.984 121.697C-328.187 68.8576 -248.749 77.8428 -182.175 57.8463C-115.321 37.7659 -53.724 -13.2643 16.3895 3.5424C87.235 20.5245 151.011 79.4378 193.506 147.9C233.122 211.723 237.606 291.356 241.727 366.572C245.118 428.469 222.108 483.126 215.19 543.731C207.671 609.609 235.67 689.502 199.184 739.306C162.89 788.849 92.8064 807.272 34.4114 790.502Z" fill="#E5E1FF" fill-opacity="0.37"/>
</svg>
