<svg width="196" height="118" viewBox="0 0 196 118" fill="none" xmlns="http://www.w3.org/2000/svg">
<path d="M175.64 85.357C167.3 57.1154 137.487 34.3129 137.487 34.3129C137.487 34.3129 129.95 27.6884 119.74 34.8011C112.501 39.8392 102.465 35.875 100.707 27.2107C100.679 27.0747 100.654 26.9353 100.627 26.7958C100.61 26.705 100.602 26.6128 100.602 26.5204C100.63 25.579 100.929 19.9481 104.425 16.4475L114.593 6.23872C114.593 6.23872 127.312 -7.7984 143.141 6.23872C159.693 20.9139 216.341 93.0136 188.359 115.983C188.359 115.983 180.714 126.192 138.759 100.67C91.084 71.6825 66.2058 57.9661 66.2058 57.9661C66.2058 57.9661 29.3697 34.3129 17.9297 70.0438C10.1733 94.2514 17.9297 97.5497 17.9297 97.5497C17.9297 97.5497 23.5906 104.872 43.4613 86.3925C46.4186 83.6451 50.9953 83.1848 54.1785 85.6673C57.0385 87.8988 58.6301 91.7271 53.5425 98.1076C43.3674 110.869 21.4743 116.486 21.4743 116.486C21.4743 116.486 -1.89228 122.294 0.12328 87.8953C2.79563 42.3357 18.2251 33.9225 21.7453 31.7608C21.7453 31.7608 40.7854 19.0241 129.567 80.0574C129.571 80.0574 185.815 119.812 175.64 85.357Z" fill="#E5E5E5"/>
<path d="M65 84C69.4183 84 73 80.4183 73 76C73 71.5817 69.4183 68 65 68C60.5817 68 57 71.5817 57 76C57 80.4183 60.5817 84 65 84Z" fill="#E5E5E5"/>
<path d="M93 51C97.4183 51 101 47.1944 101 42.5C101 37.8056 97.4183 34 93 34C88.5817 34 85 37.8056 85 42.5C85 47.1944 88.5817 51 93 51Z" fill="#E5E5E5"/>
</svg>
