<svg width="19" height="19" viewBox="0 0 19 19" fill="none" xmlns="http://www.w3.org/2000/svg">
<path fill-rule="evenodd" clip-rule="evenodd" d="M7.58467 17.0128C7.58467 16.7474 7.48479 16.4929 7.30699 16.3052C7.12919 16.1175 6.88804 16.0121 6.63659 16.0121H1.89617V2.00151H6.63659C6.88804 2.00151 7.12919 1.89607 7.30699 1.7084C7.48479 1.52072 7.58467 1.26617 7.58467 1.00076C7.58467 0.735339 7.48479 0.480793 7.30699 0.293115C7.12919 0.105436 6.88804 0 6.63659 0H1.89617C1.39327 0 0.910975 0.210873 0.555375 0.586229C0.199774 0.961585 0 1.47068 0 2.00151V16.0121C0 16.5429 0.199774 17.052 0.555375 17.4274C0.910975 17.8027 1.39327 18.0136 1.89617 18.0136H6.63659C6.88804 18.0136 7.12919 17.9082 7.30699 17.7205C7.48479 17.5328 7.58467 17.2783 7.58467 17.0128Z" fill="#8E81F4"/>
<path d="M18.671 9.9573C18.8568 9.7634 18.9611 9.50241 18.9615 9.23041V9.22415C18.961 8.9486 18.8539 8.68453 18.6639 8.48995L14.6007 4.31838C14.5069 4.21878 14.3949 4.13933 14.2709 4.08467C14.147 4.03001 14.0137 4.00124 13.8788 4.00004C13.7439 3.99884 13.6102 4.02522 13.4853 4.07766C13.3605 4.1301 13.2471 4.20754 13.1517 4.30546C13.0563 4.40338 12.9809 4.51982 12.9298 4.64798C12.8788 4.77615 12.8531 4.91348 12.8542 5.05195C12.8554 5.19043 12.8834 5.32728 12.9367 5.45451C12.9899 5.58175 13.0673 5.69683 13.1643 5.79303L15.4935 8.18439H5.75604C5.48663 8.18439 5.22826 8.29426 5.03776 8.48984C4.84726 8.68542 4.74023 8.95069 4.74023 9.22728C4.74023 9.50387 4.84726 9.76913 5.03776 9.96471C5.22826 10.1603 5.48663 10.2702 5.75604 10.2702H15.4935L13.1643 12.6615C12.9793 12.8582 12.8769 13.1217 12.8792 13.3951C12.8815 13.6685 12.9883 13.9301 13.1767 14.1235C13.365 14.3168 13.6198 14.4265 13.8861 14.4289C14.1525 14.4313 14.4091 14.3261 14.6007 14.1362L18.6639 9.9646L18.671 9.9573Z" fill="#8E81F4"/>
</svg>
