<svg width="34" height="34" viewBox="0 0 34 34" fill="none" xmlns="http://www.w3.org/2000/svg">
<g clip-path="url(#clip0_860:373)">
<path d="M22.125 18.1667C25.6667 18.1667 28.5 21 28.5 24.5417C28.5 25.7883 28.1458 26.95 27.5225 27.9417L31.8858 32.3333L29.9167 34.3025L25.4967 29.9533C24.5192 30.5625 23.3575 30.9167 22.125 30.9167C18.5833 30.9167 15.75 28.0833 15.75 24.5417C15.75 21 18.5833 18.1667 22.125 18.1667ZM22.125 21C21.1857 21 20.2849 21.3731 19.6207 22.0373C18.9565 22.7015 18.5833 23.6024 18.5833 24.5417C18.5833 25.481 18.9565 26.3818 19.6207 27.046C20.2849 27.7102 21.1857 28.0833 22.125 28.0833C23.0643 28.0833 23.9651 27.7102 24.6293 27.046C25.2935 26.3818 25.6667 25.481 25.6667 24.5417C25.6667 23.6024 25.2935 22.7015 24.6293 22.0373C23.9651 21.3731 23.0643 21 22.125 21ZM27.7917 4C27.9795 4 28.1597 4.07463 28.2925 4.20747C28.4254 4.3403 28.5 4.52047 28.5 4.70833V17.8975C27.6783 17.1183 26.7292 16.4808 25.6667 16.0417V7.825L21.4167 9.46833V15.3333C20.425 15.4325 19.4617 15.6733 18.5833 16.0417V9.4825L12.9167 7.49917V24.5417C12.9167 25.4483 13.0442 26.3267 13.285 27.1483L11.5 26.525L3.935 29.4575L3.70833 29.5C3.52047 29.5 3.3403 29.4254 3.20747 29.2925C3.07463 29.1597 3 28.9795 3 28.7917V7.37167C3 7.04583 3.2125 6.79083 3.51 6.69167L11.5 4L20 6.975L27.565 4.0425L27.7917 4ZM5.83333 8.90167V25.6892L10.0833 24.0458V7.47083L5.83333 8.90167Z" fill="white"/>
</g>
<defs>
<clipPath id="clip0_860:373">
<rect width="34" height="34" fill="white"/>
</clipPath>
</defs>
</svg>
