<svg width="12" height="16" viewBox="0 0 12 16" fill="none" xmlns="http://www.w3.org/2000/svg">
<path d="M0.50035 15.4994L0.500209 15.4996M0.50035 15.4994L0.499982 15.5M0.50035 15.4994L0.500209 15.4996M0.50035 15.4994L0.499982 15.5M0.500209 15.4996L0.499982 15.5M0.500209 15.4996L0.499982 15.5M11.4998 15.4996L11.4997 15.4994L11.4998 15.4996ZM11.4998 15.4996L11.5 15.5L11.4998 15.4996ZM6.47896 12.1909L6 11.9295L5.52104 12.1909L1 14.6576V1.99995C1 1.73476 1.10535 1.48042 1.29289 1.29289C1.48042 1.10536 1.73478 1 2 1H10C10.2652 1 10.5196 1.10536 10.7071 1.29289C10.8946 1.48042 11 1.73476 11 1.99995V14.6576L6.47896 12.1909ZM0.739912 15.9385L0.739923 15.9385L0.739912 15.9385Z" fill="white" stroke="#8E81F4" stroke-width="2"/>
</svg>
