<svg width="30" height="30" viewBox="0 0 30 30" fill="none" xmlns="http://www.w3.org/2000/svg">
<path d="M16.5662 25.3042C16.3563 25.668 16.0548 25.9699 15.6922 26.1798C15.3295 26.3897 14.9184 26.5002 14.4999 26.5002C14.0814 26.5002 13.6702 26.3897 13.3075 26.1798C12.9449 25.9699 12.6435 25.668 12.4335 25.3042" stroke="#747D88" stroke-width="2" stroke-linecap="round" stroke-linejoin="round"/>
<path d="M21.6667 9.70128C21.6667 7.79138 20.9116 5.95971 19.5676 4.6092C18.2236 3.2587 16.4007 2.5 14.5 2.5C12.5993 2.5 10.7764 3.2587 9.4324 4.6092C8.08839 5.95971 7.33333 7.79138 7.33333 9.70128C7.33333 18.1028 3.75 20.5032 3.75 20.5032H25.25C25.25 20.5032 21.6667 18.1028 21.6667 9.70128Z" stroke="#747D88" stroke-width="2" stroke-linecap="round" stroke-linejoin="round"/>
<circle cx="19.5" cy="6.5" r="5" fill="#A398F9" stroke="white"/>
</svg>
