<svg width="15" height="17" viewBox="0 0 15 17" fill="none" xmlns="http://www.w3.org/2000/svg">
<path opacity="0.9" d="M0 17H1.875V15.381C1.875 14.7369 2.17132 14.1191 2.69876 13.6637C3.22621 13.2082 3.94158 12.9524 4.6875 12.9524H10.3125C11.0584 12.9524 11.7738 13.2082 12.3012 13.6637C12.8287 14.1191 13.125 14.7369 13.125 15.381V17H15V15.381C15 14.3075 14.5061 13.2779 13.6271 12.5189C12.748 11.7598 11.5557 11.3333 10.3125 11.3333H4.6875C3.4443 11.3333 2.25201 11.7598 1.37294 12.5189C0.49386 13.2779 0 14.3075 0 15.381V17ZM7.5 9.71429C8.23869 9.71429 8.97014 9.58865 9.65259 9.34456C10.3351 9.10046 10.9551 8.74269 11.4775 8.29166C11.9998 7.84063 12.4141 7.30519 12.6968 6.71589C12.9795 6.1266 13.125 5.49499 13.125 4.85714C13.125 4.21929 12.9795 3.58769 12.6968 2.99839C12.4141 2.4091 11.9998 1.87365 11.4775 1.42262C10.9551 0.971597 10.3351 0.613822 9.65259 0.369728C8.97014 0.125634 8.23869 -9.50469e-09 7.5 0C6.00816 1.91956e-08 4.57742 0.511733 3.52252 1.42262C2.46763 2.33352 1.875 3.56895 1.875 4.85714C1.875 6.14534 2.46763 7.38077 3.52252 8.29166C4.57742 9.20255 6.00816 9.71429 7.5 9.71429ZM7.5 8.09524C6.50544 8.09524 5.55161 7.75408 4.84835 7.14682C4.14509 6.53956 3.75 5.71594 3.75 4.85714C3.75 3.99835 4.14509 3.17472 4.84835 2.56746C5.55161 1.9602 6.50544 1.61905 7.5 1.61905C8.49456 1.61905 9.44839 1.9602 10.1517 2.56746C10.8549 3.17472 11.25 3.99835 11.25 4.85714C11.25 5.71594 10.8549 6.53956 10.1517 7.14682C9.44839 7.75408 8.49456 8.09524 7.5 8.09524Z" fill="#8E81F4"/>
</svg>
