<svg width="18" height="22" viewBox="0 0 18 22" fill="none" xmlns="http://www.w3.org/2000/svg">
<path opacity="0.9" d="M9 0L18 5.5V16.5L9 22L0 16.5V5.5L9 0ZM9 2.311L1.89474 6.653V15.347L9 19.689L16.1053 15.347V6.653L9 2.311ZM9 15C7.99497 15 7.0311 14.5786 6.32044 13.8284C5.60977 13.0783 5.21053 12.0609 5.21053 11C5.21053 9.93913 5.60977 8.92172 6.32044 8.17157C7.0311 7.42143 7.99497 7 9 7C10.005 7 10.9689 7.42143 11.6796 8.17157C12.3902 8.92172 12.7895 9.93913 12.7895 11C12.7895 12.0609 12.3902 13.0783 11.6796 13.8284C10.9689 14.5786 10.005 15 9 15ZM9 13C9.50252 13 9.98445 12.7893 10.3398 12.4142C10.6951 12.0391 10.8947 11.5304 10.8947 11C10.8947 10.4696 10.6951 9.96086 10.3398 9.58579C9.98445 9.21071 9.50252 9 9 9C8.49749 9 8.01555 9.21071 7.66022 9.58579C7.30489 9.96086 7.10526 10.4696 7.10526 11C7.10526 11.5304 7.30489 12.0391 7.66022 12.4142C8.01555 12.7893 8.49749 13 9 13Z" fill="#8E81F4"/>
</svg>
