<svg width="297" height="420" viewBox="0 0 297 420" fill="none" xmlns="http://www.w3.org/2000/svg">
<path fill-rule="evenodd" clip-rule="evenodd" d="M-144.61 295.886C-187.623 277.377 -244.73 286.944 -275.383 251.545C-306.066 216.11 -299.472 162.513 -300.676 115.655C-301.667 77.0387 -283.022 41.932 -281.759 3.32331C-280.035 -49.3901 -313.676 -103.826 -291.925 -151.873C-269.482 -201.448 -219.078 -238.467 -166.299 -251.721C-113.758 -264.916 -56.1095 -249.933 -9.17557 -222.88C33.4064 -198.336 52.0721 -149.136 80.8269 -109.276C104.893 -75.9156 125.849 -42.8582 146.398 -7.22395C173.604 39.9544 237.223 82.5659 221.53 134.717C205.6 187.657 116.788 173.993 79.5662 214.871C39.819 258.522 60.7325 352.22 5.21053 372.285C-48.4245 391.668 -92.2236 318.428 -144.61 295.886Z" fill="#FBFAFF"/>
<path fill-rule="evenodd" clip-rule="evenodd" d="M-164.042 283.891C-207.056 265.382 -264.163 274.949 -294.816 239.549C-325.499 204.115 -318.905 150.518 -320.108 103.66C-321.1 65.0436 -302.455 29.9369 -301.192 -8.6718C-299.468 -61.3852 -333.109 -115.821 -311.358 -163.868C-288.915 -213.443 -238.511 -250.462 -185.732 -263.716C-133.191 -276.911 -75.5423 -261.929 -28.6084 -234.875C13.9735 -210.331 32.6393 -161.131 61.3941 -121.271C85.4599 -87.9107 106.416 -54.8533 126.965 -19.2191C154.171 27.9593 217.79 70.5707 202.097 122.722C186.167 175.662 97.3547 161.998 60.1333 202.876C20.3861 246.527 41.2996 340.225 -14.2223 360.29C-67.8574 379.673 -111.656 306.433 -164.042 283.891Z" fill="#F3F1FF"/>
</svg>
