<svg width="196" height="473" viewBox="0 0 196 473" fill="none" xmlns="http://www.w3.org/2000/svg">
<path fill-rule="evenodd" clip-rule="evenodd" d="M125.669 375.895C112.429 344.72 77.7883 321.182 79.4527 287.353C81.1188 253.49 111.354 228.762 134.143 203.661C152.924 182.974 180.219 173.936 200.175 154.38C227.422 127.68 237.038 82.4043 272.424 68.1529C308.935 53.4484 353.79 59.2834 388.011 78.731C422.077 98.0909 444.732 134.736 455.751 172.338C465.749 206.453 450.919 241.507 446.033 276.719C441.943 306.19 436.379 333.948 429.314 362.85C419.961 401.115 431.928 455.19 397.659 474.615C362.871 494.334 323.263 442.803 283.372 445.574C240.773 448.533 204.88 507.976 165.821 490.719C128.09 474.048 141.793 413.863 125.669 375.895Z" fill="#FBFAFF"/>
<path fill-rule="evenodd" clip-rule="evenodd" d="M145.685 366.015C132.445 334.84 97.8049 311.302 99.4694 277.473C101.135 243.611 131.37 218.882 154.16 193.781C172.941 173.094 200.235 164.056 220.192 144.5C247.438 117.8 257.054 72.5244 292.44 58.273C328.951 43.5686 373.807 49.4035 408.028 68.8511C442.094 88.211 464.748 124.857 475.768 162.458C485.766 196.573 470.936 231.627 466.05 266.84C461.96 296.31 456.396 324.068 449.331 352.97C439.977 391.235 451.945 445.31 417.676 464.735C382.888 484.454 343.28 432.923 303.388 435.694C260.79 438.653 224.897 498.096 185.838 480.839C148.107 464.168 161.81 403.983 145.685 366.015Z" fill="#F3F1FF"/>
</svg>
