<svg width="34" height="34" viewBox="0 0 34 34" fill="none" xmlns="http://www.w3.org/2000/svg">
<path d="M27.625 9.5625H6.375C4.61459 9.5625 3.1875 10.9896 3.1875 12.75V25.5C3.1875 27.2604 4.61459 28.6875 6.375 28.6875H27.625C29.3854 28.6875 30.8125 27.2604 30.8125 25.5V12.75C30.8125 10.9896 29.3854 9.5625 27.625 9.5625Z" stroke="white" stroke-width="2" stroke-linejoin="round"/>
<path d="M27.3169 9.56241V7.57022C27.3167 7.08161 27.2087 6.59905 27.0006 6.15698C26.7925 5.71491 26.4893 5.32423 26.1128 5.0128C25.7363 4.70137 25.2957 4.47688 24.8225 4.35534C24.3492 4.2338 23.855 4.21821 23.375 4.30967L5.88625 7.29463C5.12678 7.43937 4.44162 7.8446 3.94895 8.44044C3.45627 9.03627 3.18698 9.78536 3.1875 10.5585V13.8124" stroke="white" stroke-width="2" stroke-linejoin="round"/>
<path d="M24.6833 21.7416C24.2144 21.7416 23.756 21.6026 23.3662 21.3421C22.9763 21.0816 22.6724 20.7113 22.493 20.2781C22.3135 19.8449 22.2666 19.3682 22.3581 18.9083C22.4495 18.4484 22.6753 18.026 23.0069 17.6944C23.3385 17.3628 23.7609 17.137 24.2208 17.0456C24.6807 16.9541 25.1574 17.001 25.5906 17.1805C26.0238 17.3599 26.3941 17.6638 26.6546 18.0537C26.9151 18.4435 27.0541 18.9019 27.0541 19.3708C27.0541 19.9996 26.8043 20.6026 26.3597 21.0472C25.9151 21.4918 25.3121 21.7416 24.6833 21.7416Z" fill="white"/>
</svg>
